<mxfile host="app.diagrams.net" modified="2024-04-25T19:12:00.697Z" agent="Mozilla/5.0 (Windows NT 10.0; Win64; x64) AppleWebKit/537.36 (KHTML, like Gecko) Chrome/124.0.0.0 Safari/537.36" etag="22CUwv1xEyRBPsd_Ksfy" version="24.2.8" type="device">
  <diagram id="C5RBs43oDa-KdzZeNtuy" name="Page-1">
    <mxGraphModel dx="1195" dy="650" grid="1" gridSize="10" guides="1" tooltips="1" connect="1" arrows="1" fold="1" page="1" pageScale="1" pageWidth="827" pageHeight="1169" math="0" shadow="0">
      <root>
        <mxCell id="WIyWlLk6GJQsqaUBKTNV-0" />
        <mxCell id="WIyWlLk6GJQsqaUBKTNV-1" parent="WIyWlLk6GJQsqaUBKTNV-0" />
        <mxCell id="JA_MpIqf8QlwyOVDKTPB-0" value="CLASE HELADERIA" style="swimlane;fontStyle=1;align=center;verticalAlign=top;childLayout=stackLayout;horizontal=1;startSize=26;horizontalStack=0;resizeParent=1;resizeParentMax=0;resizeLast=0;collapsible=1;marginBottom=0;whiteSpace=wrap;html=1;" vertex="1" parent="WIyWlLk6GJQsqaUBKTNV-1">
          <mxGeometry x="334" y="60" width="160" height="244" as="geometry">
            <mxRectangle x="120" y="106" width="150" height="30" as="alternateBounds" />
          </mxGeometry>
        </mxCell>
        <mxCell id="JA_MpIqf8QlwyOVDKTPB-1" value="ID_Local" style="text;strokeColor=none;fillColor=none;align=left;verticalAlign=top;spacingLeft=4;spacingRight=4;overflow=hidden;rotatable=0;points=[[0,0.5],[1,0.5]];portConstraint=eastwest;whiteSpace=wrap;html=1;" vertex="1" parent="JA_MpIqf8QlwyOVDKTPB-0">
          <mxGeometry y="26" width="160" height="26" as="geometry" />
        </mxCell>
        <mxCell id="JA_MpIqf8QlwyOVDKTPB-2" value="Direccion" style="text;strokeColor=none;fillColor=none;align=left;verticalAlign=top;spacingLeft=4;spacingRight=4;overflow=hidden;rotatable=0;points=[[0,0.5],[1,0.5]];portConstraint=eastwest;whiteSpace=wrap;html=1;" vertex="1" parent="JA_MpIqf8QlwyOVDKTPB-0">
          <mxGeometry y="52" width="160" height="26" as="geometry" />
        </mxCell>
        <mxCell id="JA_MpIqf8QlwyOVDKTPB-3" value="" style="line;strokeWidth=1;fillColor=none;align=left;verticalAlign=middle;spacingTop=-1;spacingLeft=3;spacingRight=3;rotatable=0;labelPosition=right;points=[];portConstraint=eastwest;strokeColor=inherit;" vertex="1" parent="JA_MpIqf8QlwyOVDKTPB-0">
          <mxGeometry y="78" width="160" height="10" as="geometry" />
        </mxCell>
        <mxCell id="JA_MpIqf8QlwyOVDKTPB-4" value="Heladeria()" style="text;strokeColor=none;fillColor=none;align=left;verticalAlign=top;spacingLeft=4;spacingRight=4;overflow=hidden;rotatable=0;points=[[0,0.5],[1,0.5]];portConstraint=eastwest;whiteSpace=wrap;html=1;" vertex="1" parent="JA_MpIqf8QlwyOVDKTPB-0">
          <mxGeometry y="88" width="160" height="26" as="geometry" />
        </mxCell>
        <mxCell id="JA_MpIqf8QlwyOVDKTPB-5" value="getDireccion()" style="text;strokeColor=none;fillColor=none;align=left;verticalAlign=top;spacingLeft=4;spacingRight=4;overflow=hidden;rotatable=0;points=[[0,0.5],[1,0.5]];portConstraint=eastwest;whiteSpace=wrap;html=1;" vertex="1" parent="JA_MpIqf8QlwyOVDKTPB-0">
          <mxGeometry y="114" width="160" height="26" as="geometry" />
        </mxCell>
        <mxCell id="JA_MpIqf8QlwyOVDKTPB-6" value="getID_Local()" style="text;strokeColor=none;fillColor=none;align=left;verticalAlign=top;spacingLeft=4;spacingRight=4;overflow=hidden;rotatable=0;points=[[0,0.5],[1,0.5]];portConstraint=eastwest;whiteSpace=wrap;html=1;" vertex="1" parent="JA_MpIqf8QlwyOVDKTPB-0">
          <mxGeometry y="140" width="160" height="26" as="geometry" />
        </mxCell>
        <mxCell id="JA_MpIqf8QlwyOVDKTPB-7" value="setDireccion()" style="text;strokeColor=none;fillColor=none;align=left;verticalAlign=top;spacingLeft=4;spacingRight=4;overflow=hidden;rotatable=0;points=[[0,0.5],[1,0.5]];portConstraint=eastwest;whiteSpace=wrap;html=1;" vertex="1" parent="JA_MpIqf8QlwyOVDKTPB-0">
          <mxGeometry y="166" width="160" height="26" as="geometry" />
        </mxCell>
        <mxCell id="JA_MpIqf8QlwyOVDKTPB-8" value="setID_Local()" style="text;strokeColor=none;fillColor=none;align=left;verticalAlign=top;spacingLeft=4;spacingRight=4;overflow=hidden;rotatable=0;points=[[0,0.5],[1,0.5]];portConstraint=eastwest;whiteSpace=wrap;html=1;" vertex="1" parent="JA_MpIqf8QlwyOVDKTPB-0">
          <mxGeometry y="192" width="160" height="26" as="geometry" />
        </mxCell>
        <mxCell id="JA_MpIqf8QlwyOVDKTPB-9" value="toString()" style="text;strokeColor=none;fillColor=none;align=left;verticalAlign=top;spacingLeft=4;spacingRight=4;overflow=hidden;rotatable=0;points=[[0,0.5],[1,0.5]];portConstraint=eastwest;whiteSpace=wrap;html=1;" vertex="1" parent="JA_MpIqf8QlwyOVDKTPB-0">
          <mxGeometry y="218" width="160" height="26" as="geometry" />
        </mxCell>
        <mxCell id="JA_MpIqf8QlwyOVDKTPB-10" value="CLASE CLIENTE" style="swimlane;fontStyle=1;align=center;verticalAlign=top;childLayout=stackLayout;horizontal=1;startSize=26;horizontalStack=0;resizeParent=1;resizeParentMax=0;resizeLast=0;collapsible=1;marginBottom=0;whiteSpace=wrap;html=1;" vertex="1" parent="WIyWlLk6GJQsqaUBKTNV-1">
          <mxGeometry x="249" y="350" width="160" height="346" as="geometry">
            <mxRectangle x="50" y="320" width="130" height="30" as="alternateBounds" />
          </mxGeometry>
        </mxCell>
        <mxCell id="JA_MpIqf8QlwyOVDKTPB-11" value="ID_Cliente" style="text;strokeColor=none;fillColor=none;align=left;verticalAlign=top;spacingLeft=4;spacingRight=4;overflow=hidden;rotatable=0;points=[[0,0.5],[1,0.5]];portConstraint=eastwest;whiteSpace=wrap;html=1;" vertex="1" parent="JA_MpIqf8QlwyOVDKTPB-10">
          <mxGeometry y="26" width="160" height="26" as="geometry" />
        </mxCell>
        <mxCell id="JA_MpIqf8QlwyOVDKTPB-12" value="Nombre" style="text;strokeColor=none;fillColor=none;align=left;verticalAlign=top;spacingLeft=4;spacingRight=4;overflow=hidden;rotatable=0;points=[[0,0.5],[1,0.5]];portConstraint=eastwest;whiteSpace=wrap;html=1;" vertex="1" parent="JA_MpIqf8QlwyOVDKTPB-10">
          <mxGeometry y="52" width="160" height="26" as="geometry" />
        </mxCell>
        <mxCell id="JA_MpIqf8QlwyOVDKTPB-13" value="Mail" style="text;strokeColor=none;fillColor=none;align=left;verticalAlign=top;spacingLeft=4;spacingRight=4;overflow=hidden;rotatable=0;points=[[0,0.5],[1,0.5]];portConstraint=eastwest;whiteSpace=wrap;html=1;" vertex="1" parent="JA_MpIqf8QlwyOVDKTPB-10">
          <mxGeometry y="78" width="160" height="26" as="geometry" />
        </mxCell>
        <mxCell id="JA_MpIqf8QlwyOVDKTPB-14" value="" style="line;strokeWidth=1;fillColor=none;align=left;verticalAlign=middle;spacingTop=-1;spacingLeft=3;spacingRight=3;rotatable=0;labelPosition=right;points=[];portConstraint=eastwest;strokeColor=inherit;" vertex="1" parent="JA_MpIqf8QlwyOVDKTPB-10">
          <mxGeometry y="104" width="160" height="8" as="geometry" />
        </mxCell>
        <mxCell id="JA_MpIqf8QlwyOVDKTPB-15" value="Cliente()" style="text;strokeColor=none;fillColor=none;align=left;verticalAlign=top;spacingLeft=4;spacingRight=4;overflow=hidden;rotatable=0;points=[[0,0.5],[1,0.5]];portConstraint=eastwest;whiteSpace=wrap;html=1;" vertex="1" parent="JA_MpIqf8QlwyOVDKTPB-10">
          <mxGeometry y="112" width="160" height="26" as="geometry" />
        </mxCell>
        <mxCell id="JA_MpIqf8QlwyOVDKTPB-16" value="getID_Cliente()" style="text;strokeColor=none;fillColor=none;align=left;verticalAlign=top;spacingLeft=4;spacingRight=4;overflow=hidden;rotatable=0;points=[[0,0.5],[1,0.5]];portConstraint=eastwest;whiteSpace=wrap;html=1;" vertex="1" parent="JA_MpIqf8QlwyOVDKTPB-10">
          <mxGeometry y="138" width="160" height="26" as="geometry" />
        </mxCell>
        <mxCell id="JA_MpIqf8QlwyOVDKTPB-17" value="getNombre()" style="text;strokeColor=none;fillColor=none;align=left;verticalAlign=top;spacingLeft=4;spacingRight=4;overflow=hidden;rotatable=0;points=[[0,0.5],[1,0.5]];portConstraint=eastwest;whiteSpace=wrap;html=1;" vertex="1" parent="JA_MpIqf8QlwyOVDKTPB-10">
          <mxGeometry y="164" width="160" height="26" as="geometry" />
        </mxCell>
        <mxCell id="JA_MpIqf8QlwyOVDKTPB-18" value="getMail()" style="text;strokeColor=none;fillColor=none;align=left;verticalAlign=top;spacingLeft=4;spacingRight=4;overflow=hidden;rotatable=0;points=[[0,0.5],[1,0.5]];portConstraint=eastwest;whiteSpace=wrap;html=1;" vertex="1" parent="JA_MpIqf8QlwyOVDKTPB-10">
          <mxGeometry y="190" width="160" height="26" as="geometry" />
        </mxCell>
        <mxCell id="JA_MpIqf8QlwyOVDKTPB-19" value="setID_Cliente()" style="text;strokeColor=none;fillColor=none;align=left;verticalAlign=top;spacingLeft=4;spacingRight=4;overflow=hidden;rotatable=0;points=[[0,0.5],[1,0.5]];portConstraint=eastwest;whiteSpace=wrap;html=1;" vertex="1" parent="JA_MpIqf8QlwyOVDKTPB-10">
          <mxGeometry y="216" width="160" height="26" as="geometry" />
        </mxCell>
        <mxCell id="JA_MpIqf8QlwyOVDKTPB-20" value="setMail()" style="text;strokeColor=none;fillColor=none;align=left;verticalAlign=top;spacingLeft=4;spacingRight=4;overflow=hidden;rotatable=0;points=[[0,0.5],[1,0.5]];portConstraint=eastwest;whiteSpace=wrap;html=1;" vertex="1" parent="JA_MpIqf8QlwyOVDKTPB-10">
          <mxGeometry y="242" width="160" height="26" as="geometry" />
        </mxCell>
        <mxCell id="JA_MpIqf8QlwyOVDKTPB-21" value="setNombre()" style="text;strokeColor=none;fillColor=none;align=left;verticalAlign=top;spacingLeft=4;spacingRight=4;overflow=hidden;rotatable=0;points=[[0,0.5],[1,0.5]];portConstraint=eastwest;whiteSpace=wrap;html=1;" vertex="1" parent="JA_MpIqf8QlwyOVDKTPB-10">
          <mxGeometry y="268" width="160" height="26" as="geometry" />
        </mxCell>
        <mxCell id="JA_MpIqf8QlwyOVDKTPB-22" value="hacerPedidos()" style="text;strokeColor=none;fillColor=none;align=left;verticalAlign=top;spacingLeft=4;spacingRight=4;overflow=hidden;rotatable=0;points=[[0,0.5],[1,0.5]];portConstraint=eastwest;whiteSpace=wrap;html=1;" vertex="1" parent="JA_MpIqf8QlwyOVDKTPB-10">
          <mxGeometry y="294" width="160" height="26" as="geometry" />
        </mxCell>
        <mxCell id="JA_MpIqf8QlwyOVDKTPB-23" value="hacerComentarios()" style="text;strokeColor=none;fillColor=none;align=left;verticalAlign=top;spacingLeft=4;spacingRight=4;overflow=hidden;rotatable=0;points=[[0,0.5],[1,0.5]];portConstraint=eastwest;whiteSpace=wrap;html=1;" vertex="1" parent="JA_MpIqf8QlwyOVDKTPB-10">
          <mxGeometry y="320" width="160" height="26" as="geometry" />
        </mxCell>
        <mxCell id="JA_MpIqf8QlwyOVDKTPB-24" value="CLASE HELADO" style="swimlane;fontStyle=1;align=center;verticalAlign=top;childLayout=stackLayout;horizontal=1;startSize=26;horizontalStack=0;resizeParent=1;resizeParentMax=0;resizeLast=0;collapsible=1;marginBottom=0;whiteSpace=wrap;html=1;" vertex="1" parent="WIyWlLk6GJQsqaUBKTNV-1">
          <mxGeometry x="419" y="350" width="160" height="450" as="geometry" />
        </mxCell>
        <mxCell id="JA_MpIqf8QlwyOVDKTPB-25" value="ID_Helado" style="text;strokeColor=none;fillColor=none;align=left;verticalAlign=top;spacingLeft=4;spacingRight=4;overflow=hidden;rotatable=0;points=[[0,0.5],[1,0.5]];portConstraint=eastwest;whiteSpace=wrap;html=1;" vertex="1" parent="JA_MpIqf8QlwyOVDKTPB-24">
          <mxGeometry y="26" width="160" height="26" as="geometry" />
        </mxCell>
        <mxCell id="JA_MpIqf8QlwyOVDKTPB-26" value="Sabor" style="text;strokeColor=none;fillColor=none;align=left;verticalAlign=top;spacingLeft=4;spacingRight=4;overflow=hidden;rotatable=0;points=[[0,0.5],[1,0.5]];portConstraint=eastwest;whiteSpace=wrap;html=1;" vertex="1" parent="JA_MpIqf8QlwyOVDKTPB-24">
          <mxGeometry y="52" width="160" height="26" as="geometry" />
        </mxCell>
        <mxCell id="JA_MpIqf8QlwyOVDKTPB-27" value="Precio" style="text;strokeColor=none;fillColor=none;align=left;verticalAlign=top;spacingLeft=4;spacingRight=4;overflow=hidden;rotatable=0;points=[[0,0.5],[1,0.5]];portConstraint=eastwest;whiteSpace=wrap;html=1;" vertex="1" parent="JA_MpIqf8QlwyOVDKTPB-24">
          <mxGeometry y="78" width="160" height="26" as="geometry" />
        </mxCell>
        <mxCell id="JA_MpIqf8QlwyOVDKTPB-28" value="Valoracion" style="text;strokeColor=none;fillColor=none;align=left;verticalAlign=top;spacingLeft=4;spacingRight=4;overflow=hidden;rotatable=0;points=[[0,0.5],[1,0.5]];portConstraint=eastwest;whiteSpace=wrap;html=1;" vertex="1" parent="JA_MpIqf8QlwyOVDKTPB-24">
          <mxGeometry y="104" width="160" height="26" as="geometry" />
        </mxCell>
        <mxCell id="JA_MpIqf8QlwyOVDKTPB-29" value="" style="line;strokeWidth=1;fillColor=none;align=left;verticalAlign=middle;spacingTop=-1;spacingLeft=3;spacingRight=3;rotatable=0;labelPosition=right;points=[];portConstraint=eastwest;strokeColor=inherit;" vertex="1" parent="JA_MpIqf8QlwyOVDKTPB-24">
          <mxGeometry y="130" width="160" height="8" as="geometry" />
        </mxCell>
        <mxCell id="JA_MpIqf8QlwyOVDKTPB-30" value="Helado()" style="text;strokeColor=none;fillColor=none;align=left;verticalAlign=top;spacingLeft=4;spacingRight=4;overflow=hidden;rotatable=0;points=[[0,0.5],[1,0.5]];portConstraint=eastwest;whiteSpace=wrap;html=1;" vertex="1" parent="JA_MpIqf8QlwyOVDKTPB-24">
          <mxGeometry y="138" width="160" height="26" as="geometry" />
        </mxCell>
        <mxCell id="JA_MpIqf8QlwyOVDKTPB-31" value="getID_Helado()" style="text;strokeColor=none;fillColor=none;align=left;verticalAlign=top;spacingLeft=4;spacingRight=4;overflow=hidden;rotatable=0;points=[[0,0.5],[1,0.5]];portConstraint=eastwest;whiteSpace=wrap;html=1;" vertex="1" parent="JA_MpIqf8QlwyOVDKTPB-24">
          <mxGeometry y="164" width="160" height="26" as="geometry" />
        </mxCell>
        <mxCell id="JA_MpIqf8QlwyOVDKTPB-32" value="getSabor()" style="text;strokeColor=none;fillColor=none;align=left;verticalAlign=top;spacingLeft=4;spacingRight=4;overflow=hidden;rotatable=0;points=[[0,0.5],[1,0.5]];portConstraint=eastwest;whiteSpace=wrap;html=1;" vertex="1" parent="JA_MpIqf8QlwyOVDKTPB-24">
          <mxGeometry y="190" width="160" height="26" as="geometry" />
        </mxCell>
        <mxCell id="JA_MpIqf8QlwyOVDKTPB-33" value="getPrecio()" style="text;strokeColor=none;fillColor=none;align=left;verticalAlign=top;spacingLeft=4;spacingRight=4;overflow=hidden;rotatable=0;points=[[0,0.5],[1,0.5]];portConstraint=eastwest;whiteSpace=wrap;html=1;" vertex="1" parent="JA_MpIqf8QlwyOVDKTPB-24">
          <mxGeometry y="216" width="160" height="26" as="geometry" />
        </mxCell>
        <mxCell id="JA_MpIqf8QlwyOVDKTPB-34" value="getValoracion()" style="text;strokeColor=none;fillColor=none;align=left;verticalAlign=top;spacingLeft=4;spacingRight=4;overflow=hidden;rotatable=0;points=[[0,0.5],[1,0.5]];portConstraint=eastwest;whiteSpace=wrap;html=1;" vertex="1" parent="JA_MpIqf8QlwyOVDKTPB-24">
          <mxGeometry y="242" width="160" height="26" as="geometry" />
        </mxCell>
        <mxCell id="JA_MpIqf8QlwyOVDKTPB-35" value="setID_Helado()" style="text;strokeColor=none;fillColor=none;align=left;verticalAlign=top;spacingLeft=4;spacingRight=4;overflow=hidden;rotatable=0;points=[[0,0.5],[1,0.5]];portConstraint=eastwest;whiteSpace=wrap;html=1;" vertex="1" parent="JA_MpIqf8QlwyOVDKTPB-24">
          <mxGeometry y="268" width="160" height="26" as="geometry" />
        </mxCell>
        <mxCell id="JA_MpIqf8QlwyOVDKTPB-36" value="setSabor()" style="text;strokeColor=none;fillColor=none;align=left;verticalAlign=top;spacingLeft=4;spacingRight=4;overflow=hidden;rotatable=0;points=[[0,0.5],[1,0.5]];portConstraint=eastwest;whiteSpace=wrap;html=1;" vertex="1" parent="JA_MpIqf8QlwyOVDKTPB-24">
          <mxGeometry y="294" width="160" height="26" as="geometry" />
        </mxCell>
        <mxCell id="JA_MpIqf8QlwyOVDKTPB-37" value="setValoracion()" style="text;strokeColor=none;fillColor=none;align=left;verticalAlign=top;spacingLeft=4;spacingRight=4;overflow=hidden;rotatable=0;points=[[0,0.5],[1,0.5]];portConstraint=eastwest;whiteSpace=wrap;html=1;" vertex="1" parent="JA_MpIqf8QlwyOVDKTPB-24">
          <mxGeometry y="320" width="160" height="26" as="geometry" />
        </mxCell>
        <mxCell id="JA_MpIqf8QlwyOVDKTPB-38" value="setPrecio()" style="text;strokeColor=none;fillColor=none;align=left;verticalAlign=top;spacingLeft=4;spacingRight=4;overflow=hidden;rotatable=0;points=[[0,0.5],[1,0.5]];portConstraint=eastwest;whiteSpace=wrap;html=1;" vertex="1" parent="JA_MpIqf8QlwyOVDKTPB-24">
          <mxGeometry y="346" width="160" height="26" as="geometry" />
        </mxCell>
        <mxCell id="JA_MpIqf8QlwyOVDKTPB-39" value="verComentarios()" style="text;strokeColor=none;fillColor=none;align=left;verticalAlign=top;spacingLeft=4;spacingRight=4;overflow=hidden;rotatable=0;points=[[0,0.5],[1,0.5]];portConstraint=eastwest;whiteSpace=wrap;html=1;" vertex="1" parent="JA_MpIqf8QlwyOVDKTPB-24">
          <mxGeometry y="372" width="160" height="26" as="geometry" />
        </mxCell>
        <mxCell id="JA_MpIqf8QlwyOVDKTPB-40" value="verValoracion()" style="text;strokeColor=none;fillColor=none;align=left;verticalAlign=top;spacingLeft=4;spacingRight=4;overflow=hidden;rotatable=0;points=[[0,0.5],[1,0.5]];portConstraint=eastwest;whiteSpace=wrap;html=1;" vertex="1" parent="JA_MpIqf8QlwyOVDKTPB-24">
          <mxGeometry y="398" width="160" height="26" as="geometry" />
        </mxCell>
        <mxCell id="JA_MpIqf8QlwyOVDKTPB-41" value="toString()" style="text;strokeColor=none;fillColor=none;align=left;verticalAlign=top;spacingLeft=4;spacingRight=4;overflow=hidden;rotatable=0;points=[[0,0.5],[1,0.5]];portConstraint=eastwest;whiteSpace=wrap;html=1;" vertex="1" parent="JA_MpIqf8QlwyOVDKTPB-24">
          <mxGeometry y="424" width="160" height="26" as="geometry" />
        </mxCell>
        <mxCell id="JA_MpIqf8QlwyOVDKTPB-42" value="CLASE PEDIDO" style="swimlane;fontStyle=1;align=center;verticalAlign=top;childLayout=stackLayout;horizontal=1;startSize=26;horizontalStack=0;resizeParent=1;resizeParentMax=0;resizeLast=0;collapsible=1;marginBottom=0;whiteSpace=wrap;html=1;" vertex="1" parent="WIyWlLk6GJQsqaUBKTNV-1">
          <mxGeometry x="589" y="350" width="160" height="424" as="geometry" />
        </mxCell>
        <mxCell id="JA_MpIqf8QlwyOVDKTPB-43" value="ID_Pedido" style="text;strokeColor=none;fillColor=none;align=left;verticalAlign=top;spacingLeft=4;spacingRight=4;overflow=hidden;rotatable=0;points=[[0,0.5],[1,0.5]];portConstraint=eastwest;whiteSpace=wrap;html=1;" vertex="1" parent="JA_MpIqf8QlwyOVDKTPB-42">
          <mxGeometry y="26" width="160" height="26" as="geometry" />
        </mxCell>
        <mxCell id="JA_MpIqf8QlwyOVDKTPB-44" value="Direccion" style="text;strokeColor=none;fillColor=none;align=left;verticalAlign=top;spacingLeft=4;spacingRight=4;overflow=hidden;rotatable=0;points=[[0,0.5],[1,0.5]];portConstraint=eastwest;whiteSpace=wrap;html=1;" vertex="1" parent="JA_MpIqf8QlwyOVDKTPB-42">
          <mxGeometry y="52" width="160" height="26" as="geometry" />
        </mxCell>
        <mxCell id="JA_MpIqf8QlwyOVDKTPB-45" value="Precio" style="text;strokeColor=none;fillColor=none;align=left;verticalAlign=top;spacingLeft=4;spacingRight=4;overflow=hidden;rotatable=0;points=[[0,0.5],[1,0.5]];portConstraint=eastwest;whiteSpace=wrap;html=1;" vertex="1" parent="JA_MpIqf8QlwyOVDKTPB-42">
          <mxGeometry y="78" width="160" height="26" as="geometry" />
        </mxCell>
        <mxCell id="JA_MpIqf8QlwyOVDKTPB-46" value="fechaPedido" style="text;strokeColor=none;fillColor=none;align=left;verticalAlign=top;spacingLeft=4;spacingRight=4;overflow=hidden;rotatable=0;points=[[0,0.5],[1,0.5]];portConstraint=eastwest;whiteSpace=wrap;html=1;" vertex="1" parent="JA_MpIqf8QlwyOVDKTPB-42">
          <mxGeometry y="104" width="160" height="26" as="geometry" />
        </mxCell>
        <mxCell id="JA_MpIqf8QlwyOVDKTPB-47" value="" style="line;strokeWidth=1;fillColor=none;align=left;verticalAlign=middle;spacingTop=-1;spacingLeft=3;spacingRight=3;rotatable=0;labelPosition=right;points=[];portConstraint=eastwest;strokeColor=inherit;" vertex="1" parent="JA_MpIqf8QlwyOVDKTPB-42">
          <mxGeometry y="130" width="160" height="8" as="geometry" />
        </mxCell>
        <mxCell id="JA_MpIqf8QlwyOVDKTPB-48" value="Pedido()" style="text;strokeColor=none;fillColor=none;align=left;verticalAlign=top;spacingLeft=4;spacingRight=4;overflow=hidden;rotatable=0;points=[[0,0.5],[1,0.5]];portConstraint=eastwest;whiteSpace=wrap;html=1;" vertex="1" parent="JA_MpIqf8QlwyOVDKTPB-42">
          <mxGeometry y="138" width="160" height="26" as="geometry" />
        </mxCell>
        <mxCell id="JA_MpIqf8QlwyOVDKTPB-49" value="getID_Pedido()" style="text;strokeColor=none;fillColor=none;align=left;verticalAlign=top;spacingLeft=4;spacingRight=4;overflow=hidden;rotatable=0;points=[[0,0.5],[1,0.5]];portConstraint=eastwest;whiteSpace=wrap;html=1;" vertex="1" parent="JA_MpIqf8QlwyOVDKTPB-42">
          <mxGeometry y="164" width="160" height="26" as="geometry" />
        </mxCell>
        <mxCell id="JA_MpIqf8QlwyOVDKTPB-50" value="getDireccion()" style="text;strokeColor=none;fillColor=none;align=left;verticalAlign=top;spacingLeft=4;spacingRight=4;overflow=hidden;rotatable=0;points=[[0,0.5],[1,0.5]];portConstraint=eastwest;whiteSpace=wrap;html=1;" vertex="1" parent="JA_MpIqf8QlwyOVDKTPB-42">
          <mxGeometry y="190" width="160" height="26" as="geometry" />
        </mxCell>
        <mxCell id="JA_MpIqf8QlwyOVDKTPB-51" value="getPrecio()" style="text;strokeColor=none;fillColor=none;align=left;verticalAlign=top;spacingLeft=4;spacingRight=4;overflow=hidden;rotatable=0;points=[[0,0.5],[1,0.5]];portConstraint=eastwest;whiteSpace=wrap;html=1;" vertex="1" parent="JA_MpIqf8QlwyOVDKTPB-42">
          <mxGeometry y="216" width="160" height="26" as="geometry" />
        </mxCell>
        <mxCell id="JA_MpIqf8QlwyOVDKTPB-52" value="getFechaPedido()" style="text;strokeColor=none;fillColor=none;align=left;verticalAlign=top;spacingLeft=4;spacingRight=4;overflow=hidden;rotatable=0;points=[[0,0.5],[1,0.5]];portConstraint=eastwest;whiteSpace=wrap;html=1;" vertex="1" parent="JA_MpIqf8QlwyOVDKTPB-42">
          <mxGeometry y="242" width="160" height="26" as="geometry" />
        </mxCell>
        <mxCell id="JA_MpIqf8QlwyOVDKTPB-53" value="setID_Pedido()" style="text;strokeColor=none;fillColor=none;align=left;verticalAlign=top;spacingLeft=4;spacingRight=4;overflow=hidden;rotatable=0;points=[[0,0.5],[1,0.5]];portConstraint=eastwest;whiteSpace=wrap;html=1;" vertex="1" parent="JA_MpIqf8QlwyOVDKTPB-42">
          <mxGeometry y="268" width="160" height="26" as="geometry" />
        </mxCell>
        <mxCell id="JA_MpIqf8QlwyOVDKTPB-54" value="setDireccion()" style="text;strokeColor=none;fillColor=none;align=left;verticalAlign=top;spacingLeft=4;spacingRight=4;overflow=hidden;rotatable=0;points=[[0,0.5],[1,0.5]];portConstraint=eastwest;whiteSpace=wrap;html=1;" vertex="1" parent="JA_MpIqf8QlwyOVDKTPB-42">
          <mxGeometry y="294" width="160" height="26" as="geometry" />
        </mxCell>
        <mxCell id="JA_MpIqf8QlwyOVDKTPB-55" value="setPrecio()" style="text;strokeColor=none;fillColor=none;align=left;verticalAlign=top;spacingLeft=4;spacingRight=4;overflow=hidden;rotatable=0;points=[[0,0.5],[1,0.5]];portConstraint=eastwest;whiteSpace=wrap;html=1;" vertex="1" parent="JA_MpIqf8QlwyOVDKTPB-42">
          <mxGeometry y="320" width="160" height="26" as="geometry" />
        </mxCell>
        <mxCell id="JA_MpIqf8QlwyOVDKTPB-56" value="setFechaPedido()" style="text;strokeColor=none;fillColor=none;align=left;verticalAlign=top;spacingLeft=4;spacingRight=4;overflow=hidden;rotatable=0;points=[[0,0.5],[1,0.5]];portConstraint=eastwest;whiteSpace=wrap;html=1;" vertex="1" parent="JA_MpIqf8QlwyOVDKTPB-42">
          <mxGeometry y="346" width="160" height="26" as="geometry" />
        </mxCell>
        <mxCell id="JA_MpIqf8QlwyOVDKTPB-57" value="hacerPedido()" style="text;strokeColor=none;fillColor=none;align=left;verticalAlign=top;spacingLeft=4;spacingRight=4;overflow=hidden;rotatable=0;points=[[0,0.5],[1,0.5]];portConstraint=eastwest;whiteSpace=wrap;html=1;" vertex="1" parent="JA_MpIqf8QlwyOVDKTPB-42">
          <mxGeometry y="372" width="160" height="26" as="geometry" />
        </mxCell>
        <mxCell id="JA_MpIqf8QlwyOVDKTPB-58" value="mostrarInfoPedido()" style="text;strokeColor=none;fillColor=none;align=left;verticalAlign=top;spacingLeft=4;spacingRight=4;overflow=hidden;rotatable=0;points=[[0,0.5],[1,0.5]];portConstraint=eastwest;whiteSpace=wrap;html=1;" vertex="1" parent="JA_MpIqf8QlwyOVDKTPB-42">
          <mxGeometry y="398" width="160" height="26" as="geometry" />
        </mxCell>
        <mxCell id="JA_MpIqf8QlwyOVDKTPB-59" value="CLASE REPARTIDOR" style="swimlane;fontStyle=1;align=center;verticalAlign=top;childLayout=stackLayout;horizontal=1;startSize=26;horizontalStack=0;resizeParent=1;resizeParentMax=0;resizeLast=0;collapsible=1;marginBottom=0;whiteSpace=wrap;html=1;" vertex="1" parent="WIyWlLk6GJQsqaUBKTNV-1">
          <mxGeometry x="79" y="350" width="160" height="242" as="geometry">
            <mxRectangle x="50" y="320" width="130" height="30" as="alternateBounds" />
          </mxGeometry>
        </mxCell>
        <mxCell id="JA_MpIqf8QlwyOVDKTPB-60" value="ID_Repartidor" style="text;strokeColor=none;fillColor=none;align=left;verticalAlign=top;spacingLeft=4;spacingRight=4;overflow=hidden;rotatable=0;points=[[0,0.5],[1,0.5]];portConstraint=eastwest;whiteSpace=wrap;html=1;" vertex="1" parent="JA_MpIqf8QlwyOVDKTPB-59">
          <mxGeometry y="26" width="160" height="26" as="geometry" />
        </mxCell>
        <mxCell id="JA_MpIqf8QlwyOVDKTPB-61" value="Nombre" style="text;strokeColor=none;fillColor=none;align=left;verticalAlign=top;spacingLeft=4;spacingRight=4;overflow=hidden;rotatable=0;points=[[0,0.5],[1,0.5]];portConstraint=eastwest;whiteSpace=wrap;html=1;" vertex="1" parent="JA_MpIqf8QlwyOVDKTPB-59">
          <mxGeometry y="52" width="160" height="26" as="geometry" />
        </mxCell>
        <mxCell id="JA_MpIqf8QlwyOVDKTPB-62" value="" style="line;strokeWidth=1;fillColor=none;align=left;verticalAlign=middle;spacingTop=-1;spacingLeft=3;spacingRight=3;rotatable=0;labelPosition=right;points=[];portConstraint=eastwest;strokeColor=inherit;" vertex="1" parent="JA_MpIqf8QlwyOVDKTPB-59">
          <mxGeometry y="78" width="160" height="8" as="geometry" />
        </mxCell>
        <mxCell id="JA_MpIqf8QlwyOVDKTPB-63" value="Repartidor()" style="text;strokeColor=none;fillColor=none;align=left;verticalAlign=top;spacingLeft=4;spacingRight=4;overflow=hidden;rotatable=0;points=[[0,0.5],[1,0.5]];portConstraint=eastwest;whiteSpace=wrap;html=1;" vertex="1" parent="JA_MpIqf8QlwyOVDKTPB-59">
          <mxGeometry y="86" width="160" height="26" as="geometry" />
        </mxCell>
        <mxCell id="JA_MpIqf8QlwyOVDKTPB-64" value="getID_Repartidor()" style="text;strokeColor=none;fillColor=none;align=left;verticalAlign=top;spacingLeft=4;spacingRight=4;overflow=hidden;rotatable=0;points=[[0,0.5],[1,0.5]];portConstraint=eastwest;whiteSpace=wrap;html=1;" vertex="1" parent="JA_MpIqf8QlwyOVDKTPB-59">
          <mxGeometry y="112" width="160" height="26" as="geometry" />
        </mxCell>
        <mxCell id="JA_MpIqf8QlwyOVDKTPB-65" value="getNombre()" style="text;strokeColor=none;fillColor=none;align=left;verticalAlign=top;spacingLeft=4;spacingRight=4;overflow=hidden;rotatable=0;points=[[0,0.5],[1,0.5]];portConstraint=eastwest;whiteSpace=wrap;html=1;" vertex="1" parent="JA_MpIqf8QlwyOVDKTPB-59">
          <mxGeometry y="138" width="160" height="26" as="geometry" />
        </mxCell>
        <mxCell id="JA_MpIqf8QlwyOVDKTPB-66" value="setID_Repartidor()" style="text;strokeColor=none;fillColor=none;align=left;verticalAlign=top;spacingLeft=4;spacingRight=4;overflow=hidden;rotatable=0;points=[[0,0.5],[1,0.5]];portConstraint=eastwest;whiteSpace=wrap;html=1;" vertex="1" parent="JA_MpIqf8QlwyOVDKTPB-59">
          <mxGeometry y="164" width="160" height="26" as="geometry" />
        </mxCell>
        <mxCell id="JA_MpIqf8QlwyOVDKTPB-67" value="setNombre()" style="text;strokeColor=none;fillColor=none;align=left;verticalAlign=top;spacingLeft=4;spacingRight=4;overflow=hidden;rotatable=0;points=[[0,0.5],[1,0.5]];portConstraint=eastwest;whiteSpace=wrap;html=1;" vertex="1" parent="JA_MpIqf8QlwyOVDKTPB-59">
          <mxGeometry y="190" width="160" height="26" as="geometry" />
        </mxCell>
        <mxCell id="JA_MpIqf8QlwyOVDKTPB-68" value="realizarEntrega()" style="text;strokeColor=none;fillColor=none;align=left;verticalAlign=top;spacingLeft=4;spacingRight=4;overflow=hidden;rotatable=0;points=[[0,0.5],[1,0.5]];portConstraint=eastwest;whiteSpace=wrap;html=1;" vertex="1" parent="JA_MpIqf8QlwyOVDKTPB-59">
          <mxGeometry y="216" width="160" height="26" as="geometry" />
        </mxCell>
        <mxCell id="JA_MpIqf8QlwyOVDKTPB-71" value="" style="endArrow=block;endSize=10;endFill=0;shadow=0;strokeWidth=1;rounded=0;curved=0;edgeStyle=elbowEdgeStyle;elbow=vertical;exitX=0.5;exitY=0;exitDx=0;exitDy=0;entryX=0.5;entryY=1;entryDx=0;entryDy=0;" edge="1" parent="WIyWlLk6GJQsqaUBKTNV-1" source="JA_MpIqf8QlwyOVDKTPB-42" target="JA_MpIqf8QlwyOVDKTPB-0">
          <mxGeometry width="160" relative="1" as="geometry">
            <mxPoint x="529" y="402" as="sourcePoint" />
            <mxPoint x="419" y="310" as="targetPoint" />
            <Array as="points">
              <mxPoint x="479" y="330" />
            </Array>
          </mxGeometry>
        </mxCell>
        <mxCell id="JA_MpIqf8QlwyOVDKTPB-72" value="" style="endArrow=block;endSize=10;endFill=0;shadow=0;strokeWidth=1;rounded=0;curved=0;edgeStyle=elbowEdgeStyle;elbow=vertical;exitX=0.5;exitY=0;exitDx=0;exitDy=0;entryX=0.497;entryY=1.024;entryDx=0;entryDy=0;entryPerimeter=0;" edge="1" parent="WIyWlLk6GJQsqaUBKTNV-1" source="JA_MpIqf8QlwyOVDKTPB-59" target="JA_MpIqf8QlwyOVDKTPB-9">
          <mxGeometry width="160" relative="1" as="geometry">
            <mxPoint x="164" y="336" as="sourcePoint" />
            <mxPoint x="409" y="310" as="targetPoint" />
            <Array as="points">
              <mxPoint x="219" y="330" />
            </Array>
          </mxGeometry>
        </mxCell>
        <mxCell id="JA_MpIqf8QlwyOVDKTPB-73" value="" style="endArrow=block;endSize=10;endFill=0;shadow=0;strokeWidth=1;rounded=0;curved=0;edgeStyle=elbowEdgeStyle;elbow=vertical;exitX=0.5;exitY=0;exitDx=0;exitDy=0;entryX=0.498;entryY=1.008;entryDx=0;entryDy=0;entryPerimeter=0;" edge="1" parent="WIyWlLk6GJQsqaUBKTNV-1" source="JA_MpIqf8QlwyOVDKTPB-10" target="JA_MpIqf8QlwyOVDKTPB-9">
          <mxGeometry width="160" relative="1" as="geometry">
            <mxPoint x="289" y="350" as="sourcePoint" />
            <mxPoint x="419" y="310" as="targetPoint" />
            <Array as="points">
              <mxPoint x="309" y="330" />
            </Array>
          </mxGeometry>
        </mxCell>
        <mxCell id="JA_MpIqf8QlwyOVDKTPB-74" value="" style="endArrow=block;endSize=10;endFill=0;shadow=0;strokeWidth=1;rounded=0;curved=0;edgeStyle=elbowEdgeStyle;elbow=vertical;exitX=0.5;exitY=0;exitDx=0;exitDy=0;" edge="1" parent="WIyWlLk6GJQsqaUBKTNV-1" source="JA_MpIqf8QlwyOVDKTPB-24">
          <mxGeometry width="160" relative="1" as="geometry">
            <mxPoint x="494" y="344" as="sourcePoint" />
            <mxPoint x="414" y="304" as="targetPoint" />
            <Array as="points">
              <mxPoint x="314" y="330" />
            </Array>
          </mxGeometry>
        </mxCell>
        <mxCell id="JA_MpIqf8QlwyOVDKTPB-75" value="REPARTIDOR" style="shape=umlActor;verticalLabelPosition=bottom;verticalAlign=top;html=1;outlineConnect=0;" vertex="1" parent="WIyWlLk6GJQsqaUBKTNV-1">
          <mxGeometry x="190" y="870" width="30" height="60" as="geometry" />
        </mxCell>
        <mxCell id="JA_MpIqf8QlwyOVDKTPB-76" value="CLIENTE" style="shape=umlActor;verticalLabelPosition=bottom;verticalAlign=top;html=1;outlineConnect=0;" vertex="1" parent="WIyWlLk6GJQsqaUBKTNV-1">
          <mxGeometry x="144" y="1020" width="30" height="60" as="geometry" />
        </mxCell>
        <mxCell id="JA_MpIqf8QlwyOVDKTPB-77" value="HELADERO" style="shape=umlActor;verticalLabelPosition=bottom;verticalAlign=top;html=1;outlineConnect=0;" vertex="1" parent="WIyWlLk6GJQsqaUBKTNV-1">
          <mxGeometry x="620" y="930" width="30" height="60" as="geometry" />
        </mxCell>
      </root>
    </mxGraphModel>
  </diagram>
</mxfile>
